<svg viewBox="0 0 330.0000305175781 200.00001525878906" xmlns="http://www.w3.org/2000/svg"><g><g><g><g><g><line x1="50" y1="178" x2="45" y2="178" style="visibility: inherit;" fill="rgb(0, 0, 0)" stroke="rgb(204, 204, 204)" stroke-width="1px"></line><line x1="50" y1="152.57142857142858" x2="45" y2="152.57142857142858" style="visibility: inherit;" fill="rgb(0, 0, 0)" stroke="rgb(204, 204, 204)" stroke-width="1px"></line><line x1="50" y1="127.14285714285717" x2="45" y2="127.14285714285717" style="visibility: inherit;" fill="rgb(0, 0, 0)" stroke="rgb(204, 204, 204)" stroke-width="1px"></line><line x1="50" y1="101.71428571428571" x2="45" y2="101.71428571428571" style="visibility: inherit;" fill="rgb(0, 0, 0)" stroke="rgb(204, 204, 204)" stroke-width="1px"></line><line x1="50" y1="76.2857142857143" x2="45" y2="76.2857142857143" style="visibility: inherit;" fill="rgb(0, 0, 0)" stroke="rgb(204, 204, 204)" stroke-width="1px"></line><line x1="50" y1="50.857142857142854" x2="45" y2="50.857142857142854" style="visibility: inherit;" fill="rgb(0, 0, 0)" stroke="rgb(204, 204, 204)" stroke-width="1px"></line><line x1="50" y1="25.428571428571455" x2="45" y2="25.428571428571455" style="visibility: inherit;" fill="rgb(0, 0, 0)" stroke="rgb(204, 204, 204)" stroke-width="1px"></line><line x1="50" y1="0" x2="45" y2="0" style="visibility: inherit;" fill="rgb(0, 0, 0)" stroke="rgb(204, 204, 204)" stroke-width="1px"></line></g><g transform="translate(40, 0)"><text x="0" y="178" dx="0em" dy="0.3em" style="text-anchor: end; visibility: hidden; font-family: Roboto, sans-serif; font-size: 12px; font-weight: 200;" fill="rgb(50, 49, 63)" stroke="none" stroke-width="1px">0.4</text><text x="0" y="152.57142857142858" dx="0em" dy="0.3em" style="text-anchor: end; visibility: inherit; font-family: Roboto, sans-serif; font-size: 12px; font-weight: 200;" fill="rgb(50, 49, 63)" stroke="none" stroke-width="1px">0.45</text><text x="0" y="127.14285714285717" dx="0em" dy="0.3em" style="text-anchor: end; visibility: inherit; font-family: Roboto, sans-serif; font-size: 12px; font-weight: 200;" fill="rgb(50, 49, 63)" stroke="none" stroke-width="1px">0.5</text><text x="0" y="101.71428571428571" dx="0em" dy="0.3em" style="text-anchor: end; visibility: inherit; font-family: Roboto, sans-serif; font-size: 12px; font-weight: 200;" fill="rgb(50, 49, 63)" stroke="none" stroke-width="1px">0.55</text><text x="0" y="76.2857142857143" dx="0em" dy="0.3em" style="text-anchor: end; visibility: inherit; font-family: Roboto, sans-serif; font-size: 12px; font-weight: 200;" fill="rgb(50, 49, 63)" stroke="none" stroke-width="1px">0.6</text><text x="0" y="50.857142857142854" dx="0em" dy="0.3em" style="text-anchor: end; visibility: inherit; font-family: Roboto, sans-serif; font-size: 12px; font-weight: 200;" fill="rgb(50, 49, 63)" stroke="none" stroke-width="1px">0.65</text><text x="0" y="25.428571428571455" dx="0em" dy="0.3em" style="text-anchor: end; visibility: inherit; font-family: Roboto, sans-serif; font-size: 12px; font-weight: 200;" fill="rgb(50, 49, 63)" stroke="none" stroke-width="1px">0.7</text><text x="0" y="0" dx="0em" dy="0.3em" style="text-anchor: end; visibility: hidden; font-family: Roboto, sans-serif; font-size: 12px; font-weight: 200;" fill="rgb(50, 49, 63)" stroke="none" stroke-width="1px">0.75</text></g><line x1="50" y1="0" x2="50" y2="178" fill="rgb(0, 0, 0)" stroke="rgb(204, 204, 204)" stroke-width="1px"></line></g></g><g transform="translate(50, 0)" clip-path="url(#clip_0)"><clipPath id="clip_0"><rect width="280" height="177"></rect></clipPath><g><g><g><line x1="0" y1="0" x2="0" y2="178" fill="rgb(0, 0, 0)" stroke="rgb(60, 60, 60)" stroke-width="1px" opacity="0.25"></line><line x1="25.454545454545457" y1="0" x2="25.454545454545457" y2="178" fill="rgb(0, 0, 0)" stroke="rgb(60, 60, 60)" stroke-width="1px" opacity="0.25"></line><line x1="50.909090909090914" y1="0" x2="50.909090909090914" y2="178" fill="rgb(0, 0, 0)" stroke="rgb(60, 60, 60)" stroke-width="1px" opacity="0.25"></line><line x1="76.36363636363636" y1="0" x2="76.36363636363636" y2="178" fill="rgb(0, 0, 0)" stroke="rgb(60, 60, 60)" stroke-width="1px" opacity="0.25"></line><line x1="101.81818181818183" y1="0" x2="101.81818181818183" y2="178" fill="rgb(0, 0, 0)" stroke="rgb(60, 60, 60)" stroke-width="1px" opacity="0.25"></line><line x1="127.27272727272727" y1="0" x2="127.27272727272727" y2="178" fill="rgb(0, 0, 0)" stroke="rgb(60, 60, 60)" stroke-width="1px" opacity="0.25"></line><line x1="152.72727272727272" y1="0" x2="152.72727272727272" y2="178" fill="rgb(0, 0, 0)" stroke="rgb(60, 60, 60)" stroke-width="1px" opacity="0.25"></line><line x1="178.1818181818182" y1="0" x2="178.1818181818182" y2="178" fill="rgb(0, 0, 0)" stroke="rgb(60, 60, 60)" stroke-width="1px" opacity="0.25"></line><line x1="203.63636363636365" y1="0" x2="203.63636363636365" y2="178" fill="rgb(0, 0, 0)" stroke="rgb(60, 60, 60)" stroke-width="1px" opacity="0.25"></line><line x1="229.0909090909091" y1="0" x2="229.0909090909091" y2="178" fill="rgb(0, 0, 0)" stroke="rgb(60, 60, 60)" stroke-width="1px" opacity="0.25"></line><line x1="254.54545454545453" y1="0" x2="254.54545454545453" y2="178" fill="rgb(0, 0, 0)" stroke="rgb(60, 60, 60)" stroke-width="1px" opacity="0.25"></line><line x1="280" y1="0" x2="280" y2="178" fill="rgb(0, 0, 0)" stroke="rgb(60, 60, 60)" stroke-width="1px" opacity="0.25"></line></g><g><line x1="0" y1="178" x2="280" y2="178" fill="rgb(0, 0, 0)" stroke="rgb(60, 60, 60)" stroke-width="1px" opacity="0.25"></line><line x1="0" y1="152.57142857142858" x2="280" y2="152.57142857142858" fill="rgb(0, 0, 0)" stroke="rgb(60, 60, 60)" stroke-width="1px" opacity="0.25"></line><line x1="0" y1="127.14285714285717" x2="280" y2="127.14285714285717" fill="rgb(0, 0, 0)" stroke="rgb(60, 60, 60)" stroke-width="1px" opacity="0.25"></line><line x1="0" y1="101.71428571428571" x2="280" y2="101.71428571428571" fill="rgb(0, 0, 0)" stroke="rgb(60, 60, 60)" stroke-width="1px" opacity="0.25"></line><line x1="0" y1="76.2857142857143" x2="280" y2="76.2857142857143" fill="rgb(0, 0, 0)" stroke="rgb(60, 60, 60)" stroke-width="1px" opacity="0.25"></line><line x1="0" y1="50.857142857142854" x2="280" y2="50.857142857142854" fill="rgb(0, 0, 0)" stroke="rgb(60, 60, 60)" stroke-width="1px" opacity="0.25"></line><line x1="0" y1="25.428571428571455" x2="280" y2="25.428571428571455" fill="rgb(0, 0, 0)" stroke="rgb(60, 60, 60)" stroke-width="1px" opacity="0.25"></line><line x1="0" y1="0" x2="280" y2="0" fill="rgb(0, 0, 0)" stroke="rgb(60, 60, 60)" stroke-width="1px" opacity="0.25"></line></g></g></g><g><g><line x1="0" y1="381.4285714285715" x2="280" y2="381.4285714285715" fill="rgb(0, 0, 0)" stroke="rgb(153, 153, 153)" stroke-width="1.5px"></line></g></g><g><g><line x1="25.454545454545457" y1="0" x2="25.454545454545457" y2="178" fill="rgb(0, 0, 0)" stroke="rgb(153, 153, 153)" stroke-width="1.5px"></line></g></g><g><g><g><g><g><path stroke="rgb(255, 112, 67)" stroke-width="2px" d="M30.545454545454543,-0.20794231903795968L31.054545454545455,15.223644972365017L31.563636363636366,-15.538184718746448L33.09090909090909,-2.2708436657248328L33.6,28.63870708152709L34.10909090909091,53.58178842935796L34.61818181818182,50.36670035159388L35.127272727272725,60.52430379059153L35.63636363636363,69.58743070467995L36.14545454545455,51.45877795411894L36.654545454545456,42.43112917634972L37.163636363636364,34.780768681400446L37.67272727272727,28.511667255007776L38.18181818181818,30.541533929847386L38.69090909090909,-0.5020062397565699L39.2,24.16723989869812L39.70909090909091,40.99426560704463L40.21818181818182,32.21368613602752L40.72727272727273,46.94113270131713L41.236363636363635,51.924884869520746L41.74545454545454,48.56604357597221L42.25454545454546,67.76949638740636L42.763636363636365,81.74536203705937L43.27272727272727,61.67932951657723L43.78181818181818,16.243442125901247L44.29090909090909,35.474119304944416L44.800000000000004,35.684523926843966L45.309090909090905,9.738269682255009L45.81818181818182,28.31421195952447L46.32727272727273,23.414359783958705L46.836363636363636,50.71855369849977L47.345454545454544,52.371161363864154L47.85454545454545,56.45868780653185L48.36363636363637,64.55756216225646L48.872727272727275,27.897803885730852L49.38181818181818,41.685018941931084L49.89090909090909,43.08314647304789L50.4,53.519879377194414L50.909090909090914,65.9626390402094L51.418181818181814,53.28871329379772L51.92727272727273,60.15078401420138L52.43636363636364,48.87309424447352L52.945454545454545,59.19440588489947L53.45454545454545,61.49305971005319L53.96363636363636,53.47174680298367L54.472727272727276,73.18317802673228L54.98181818181818,68.1219602512281L55.49090909090909,77.37413595581748L56,83.23217478245772L56.50909090909091,57.133710970155775L57.01818181818182,71.37286405288405L57.527272727272724,62.05652245765278L58.03636363636364,83.02937921643054L58.54545454545454,84.42262884320408L59.054545454545455,76.53558599471287L59.56363636363637,74.9923837122191L60.07272727272727,69.75624993492949L60.581818181818186,65.43897452128662L61.090909090909086,77.61166848047215L61.6,61.67407895933345L62.10909090909091,73.58243913367414L62.61818181818182,70.69346437829317L63.12727272727273,73.42701127686084L63.63636363636363,85.43794651874974L64.14545454545454,89.85222365204227L64.65454545454546,92.97870814817814L65.16363636363636,80.77227754262832L65.67272727272727,76.03869589743805L66.18181818181819,84.22304040027053L66.69090909090909,81.19495446411776L67.2,89.56686093508863L67.7090909090909,82.23591290090565L68.21818181818182,85.35419795787215L68.72727272727273,96.50345129381856L69.23636363636363,98.01069169238525L69.74545454545455,68.42519964743275L70.25454545454545,55.11143234949476L70.76363636363637,69.81619360878481L71.27272727272727,61.40301447241722L71.78181818181818,79.80720801685922L72.2909090909091,79.83900498044721L72.8,82.21762777638918L73.30909090909091,76.2624291427709L73.81818181818181,94.4076160953253L74.32727272727273,103.17806528773194L74.83636363636364,115.163485533309L75.34545454545454,127.80783727204663L75.85454545454546,111.9609838562787L76.36363636363636,86.08666768127736L76.87272727272727,86.03998352219239L77.38181818181818,91.77489190774904L77.89090909090909,97.98063292362366L78.4,100.9968701258783L78.9090909090909,87.7813317672558L79.41818181818182,79.8695176675748L79.92727272727272,74.08061236010124L80.43636363636364,86.97624999204952L80.94545454545454,69.41042449256159L81.45454545454545,68.99973980295883L81.96363636363637,68.10816667927806L82.47272727272727,82.41214993781233L82.98181818181818,70.34906709390428L83.49090909090908,54.37400180048844L84,79.480356612912L84.50909090909092,92.40769380107764L85.01818181818182,72.7597939256487L85.52727272727273,85.44423763228832L86.03636363636363,86.05645453071055L86.54545454545455,93.19804955035293L87.05454545454546,106.2402531245512L87.56363636363636,121.63237320673579L88.07272727272728,123.10234423283578L88.58181818181818,120.69774335676163L89.0909090909091,113.60356809614055L89.60000000000001,90.10233975599971L90.10909090909091,91.28665559637147L90.61818181818181,91.2108595644007L91.12727272727273,91.20555302349148L91.63636363636364,88.40763577898223L92.14545454545456,92.76519317589418L92.65454545454546,111.5162424139768L93.16363636363636,107.65608374772863L93.67272727272727,101.86889455274923L94.18181818181819,100.68371343518437L94.69090909090909,116.86717436597682L95.2,101.41455674273763L95.7090909090909,95.50104823173879L96.21818181818182,107.42947851354104L96.72727272727273,94.42523874822646L97.23636363636363,79.41794591791609L97.74545454545455,100.30613908046507L98.25454545454545,93.46413045450463L98.76363636363637,97.42678860704464L99.27272727272728,76.41265427994946L99.78181818181818,56.682482933570256L100.29090909090908,83.22218896908292L100.8,100.44237560352182L101.30909090909091,95.4325792655293L101.81818181818183,93.38855203777219L102.32727272727273,90.02294393737628L102.83636363636363,93.70368896766782L103.34545454545454,91.2478409255487L103.85454545454546,100.41474497586142L104.36363636363637,87.83613189108675L104.87272727272727,96.79594275639103L105.38181818181818,106.98874533261534L105.89090909090909,112.38959266509305L106.4,77.68617139233852L106.9090909090909,80.50823571155408L107.41818181818181,76.41672990414891L107.92727272727272,98.51751657201031L108.43636363636364,99.50453588205765L108.94545454545455,95.46885252157907L109.45454545454545,85.13631064646623L109.96363636363635,101.24098555758366L110.47272727272727,100.27222908871805L110.98181818181818,109.96242770242864L111.4909090909091,108.04330510822129L112,110.37083123453203L112.5090909090909,127.89984217736911L113.01818181818182,126.21822106853254L113.52727272727273,106.4616983925495L114.03636363636365,97.2452409996846L114.54545454545455,82.63190126027219L115.05454545454545,96.74842584919831L115.56363636363636,95.25262723781661L116.07272727272728,82.46751597347088L116.58181818181819,87.72341247605902L117.09090909090908,102.14547740855676L117.6,106.41561885567393L118.10909090909091,122.7122111484351L118.61818181818182,118.90119892831014L119.12727272727274,112.03012943040265L119.63636363636363,113.85395921843097L120.14545454545454,108.33599818011515L120.65454545454546,92.0219174843369L121.16363636363637,103.15604106655604L121.67272727272729,102.30813018977317L122.18181818181817,86.58533650423603L122.69090909090909,77.93822770842367L123.2,93.9369142044435L123.70909090909092,103.744802304012L124.21818181818182,109.6427032262357L124.72727272727272,116.04087763489912L125.23636363636363,118.02028452858875L125.74545454545455,123.53040580114198L126.25454545454546,121.67015415355418L126.76363636363635,123.22753210874453L127.27272727272727,124.49670170041868L127.78181818181818,115.95099021711574L128.29090909090908,122.7537127461011L128.8,122.50925579140717L129.3090909090909,120.19692035171897L129.8181818181818,113.42236287387321L130.3272727272727,115.89005440383704L130.83636363636364,109.35619363560579L131.34545454545454,111.7634222044435L131.85454545454544,106.47937655395445L132.36363636363637,108.23365902868613L132.87272727272727,118.44291236721955L133.38181818181818,106.51419587396248L133.8909090909091,112.37452938917586L134.4,110.67669814258231L134.9090909090909,121.7797707983476L135.4181818181818,116.73346080337555L135.92727272727274,108.52707354143872L136.43636363636364,85.20791865707237L136.94545454545454,79.41133781947882L137.45454545454547,80.1251982899626L137.96363636363637,97.15926588232892L138.47272727272727,119.20762755580378L138.98181818181817,115.88694239237769L139.4909090909091,118.54883511752065L140,125.1890901150288L140.5090909090909,119.42159564115212L141.01818181818183,108.00113856428288L141.52727272727273,122.26707177284274L142.03636363636366,113.86015914036578L142.54545454545453,120.62447159211655L143.05454545454543,94.43968744026402L143.56363636363636,104.26736473749999L144.07272727272726,108.2193780949937L144.5818181818182,93.18683323756788L145.0909090909091,108.78197387497045L145.6,101.72800875517551L146.10909090909092,111.56742623677407L146.61818181818182,100.3195540893196L147.12727272727275,114.34962113854574L147.63636363636363,110.09506239303609L148.14545454545453,111.09897717123422L148.65454545454546,123.14228072336434L149.16363636363636,130.4508481894202L149.6727272727273,124.08508410896464L150.1818181818182,132.6161406175743L150.6909090909091,117.1840608473774L151.20000000000002,128.2909252174675L151.70909090909092,126.04621299246259L152.2181818181818,128.3508069319173L152.72727272727272,131.6739852174564L153.23636363636362,130.0037090489788L153.74545454545455,120.93067901106109L154.25454545454545,105.52094149368152L154.76363636363635,99.1139683505808L155.27272727272728,114.18804033880916L155.78181818181818,118.90976388965201L156.2909090909091,114.58290048837581L156.8,115.60631421531903L157.30909090909088,105.87824377952273L157.8181818181818,112.02814571752528L158.3272727272727,116.95521786286209L158.83636363636364,115.80114623590573L159.34545454545454,130.9395334931696L159.85454545454544,119.46797814273317L160.36363636363637,117.08362368526151L160.87272727272727,106.6426854427156L161.3818181818182,107.83947893269132L161.89090909090908,106.05968512638204L162.39999999999998,98.6439903317235L162.9090909090909,98.0553378221682L163.4181818181818,111.18501764451636L163.92727272727274,99.9171902055453L164.43636363636364,107.08032540938152L164.94545454545454,96.09295968262322L165.45454545454547,96.22413354970365L165.96363636363637,74.90043185864297L166.4727272727273,97.82044560483597L166.98181818181817,116.87033157297587L167.49090909090907,116.2315035081253L168,104.79941410264306L168.5090909090909,121.37711700123253L169.01818181818183,120.96241361264836L169.52727272727273,113.8817194568695L170.03636363636363,108.15515763651536L170.54545454545456,112.298083143267L171.05454545454546,114.10784153068326L171.56363636363636,110.96579060849955L172.07272727272726,113.69135834598697L172.58181818181816,100.1690101664144L173.0909090909091,103.85275445909289L173.6,96.55935813505045L174.10909090909092,114.84595600760846L174.61818181818182,124.59661331174892L175.12727272727273,128.69105990000017L175.63636363636365,112.92495423289041L176.14545454545456,111.3766530719172L176.65454545454543,116.72885030480279L177.16363636363636,119.25924886107816L177.67272727272726,120.32706993127094L178.1818181818182,129.23516569914952L178.6909090909091,126.99929932924488L179.20000000000002,121.42297426394619L179.70909090909092,119.96645668295795L180.21818181818182,111.86414072686809L180.72727272727275,106.42118597747653L181.23636363636362,101.57881046452897L181.74545454545452,110.7049686702928L182.25454545454545,121.13920907420676L182.76363636363635,131.0791294418908L183.27272727272728,113.75053729757205L183.78181818181818,132.42186781594737L184.2909090909091,125.16393979771402L184.8,127.48511784645854L185.3090909090909,109.76359990120832L185.81818181818184,114.65842961257384L186.3272727272727,126.57132025522827L186.83636363636361,132.32109384173992L187.34545454545454,122.10293958446293L187.85454545454544,109.72462590168745L188.36363636363637,117.09589054705057L188.87272727272727,133.24173521454802L189.38181818181818,136.92720033457425L189.8909090909091,123.17369505687594L190.4,115.201710287561L190.9090909090909,110.9001601054677L191.4181818181818,123.07255259753008L191.9272727272727,91.3332163446334L192.43636363636364,106.77228387826095L192.94545454545454,115.70020556146233L193.45454545454547,118.33555899165387L193.96363636363637,125.86460056876817L194.47272727272727,120.3411353663289L194.9818181818182,110.05365776376881L195.4909090909091,114.65639302687877L196,111.17203171500073L196.5090909090909,111.81616444940188L197.0181818181818,121.15133682053748L197.52727272727273,119.38939564068849L198.03636363636363,125.6642105481268L198.54545454545456,125.97055517016724L199.05454545454546,125.90644831031742L199.56363636363636,135.0955646055011L200.0727272727273,138.30308959926433L200.58181818181816,140.8638002551597L201.0909090909091,123.30347441382928L201.6,123.43986017298192L202.1090909090909,127.57031307862525L202.61818181818182,130.12243388697445L203.12727272727273,130.43920117636625L203.63636363636365,118.48259086791171L204.14545454545456,125.86847013037928L204.65454545454546,135.81884058936214L205.16363636363639,130.35832373445922L205.67272727272726,117.68435786197858L206.1818181818182,127.93298524636197L206.6909090909091,122.75840396040437L207.2,123.91731861700015L207.70909090909092,118.89523048425212L208.21818181818182,124.9984479415174L208.72727272727275,126.6453920370706L209.23636363636365,109.01556112054905L209.74545454545455,90.98419969744974L210.25454545454545,96.74336724474809L210.76363636363635,113.38973185927823L211.27272727272725,122.67178006732303L211.78181818181818,140.48517305029023L212.29090909090908,137.26717103260597L212.8,133.66030948601863L213.3090909090909,147.0613516745388L213.8181818181818,136.04181280853015L214.32727272727274,149.9153932995895L214.83636363636361,142.33297075093728L215.34545454545454,145.04235710146307L215.85454545454544,145.31701360267908L216.36363636363635,148.5937322879328L216.87272727272727,133.82162829749458L217.38181818181818,127.59845330339562L217.8909090909091,133.8454122187012L218.4,133.0816406853641L218.9090909090909,136.03973821174688L219.41818181818184,144.4577569345075L219.9272727272727,137.3264067688675L220.43636363636364,138.8621207751005L220.94545454545454,133.4467889303836L221.45454545454544,131.5233566594474L221.96363636363637,132.13067722002495L222.47272727272727,126.09668859563453L222.9818181818182,129.42085996785784L223.4909090909091,133.0895073317061L224,130.68687556231018L224.5090909090909,131.81073456688267L225.0181818181818,138.97349756767474L225.52727272727273,140.8706939668918L226.03636363636363,141.9396854737848L226.54545454545453,146.47983933428486L227.05454545454546,142.75822569180977L227.56363636363636,139.68726674552147L228.0727272727273,136.17305677179584L228.5818181818182,130.46168947842173L229.0909090909091,133.2495458912723L229.6,122.81808819041171L230.1090909090909,122.29828200992398L230.61818181818182,124.39135818464004L231.12727272727273,130.6414644049552L231.63636363636363,131.2103740222848L232.14545454545456,127.67425284158485L232.65454545454546,133.26134093965723L233.16363636363639,133.19378977039833L233.6727272727273,129.65764774180792L234.18181818181816,127.55535085974539L234.6909090909091,132.08957532461105L235.2,129.78555445663358L235.7090909090909,130.7310698658616L236.21818181818182,135.6669869049339L236.72727272727272,137.7570502602002L237.23636363636365,140.80928663271314L237.74545454545455,138.47790198581856L238.25454545454548,126.9003892791289L238.76363636363638,124.15914969754327L239.27272727272725,123.2503502877991L239.78181818181818,124.22121662060773L240.29090909090908,126.38199418538169L240.79999999999998,137.67338996978614L241.3090909090909,126.32368683897091L241.8181818181818,133.83924371904857L242.32727272727274,117.17957756208276L242.83636363636364,138.29597485832508L243.34545454545457,136.21470956240805L243.85454545454544,139.51015659540292L244.36363636363635,136.05406519224454L244.87272727272727,121.58491057596163L245.38181818181818,126.92555524373986L245.89090909090908,120.20348429871848L246.4,125.4099534931802L246.9090909090909,131.07446473735706L247.41818181818184,141.93920828043304L247.92727272727274,144.07525396344678L248.43636363636364,147.17664455684874L248.94545454545454,147.8170262636372L249.45454545454544,149.26327286474535L249.96363636363637,154.26979378988776L250.47272727272727,156.61798290943503L250.98181818181817,139.76546734379684L251.4909090909091,143.4537722286571L252,149.31205316372362L252.50909090909093,150.2535870312908L253.01818181818183,148.73729265140477L253.5272727272727,141.0199126642507L254.03636363636363,141.0476989004521L254.54545454545453,141.04467311224394L255.05454545454546,137.01145409775407L255.56363636363636,145.67482988717592L256.07272727272726,136.68391033988087L256.58181818181816,134.94771555054717L257.0909090909091,130.27355347779795L257.6,128.5542331107615L258.1090909090909,122.73230346421778L258.6181818181818,131.32968840144585L259.1272727272727,138.55381369590555" style="fill: none;" fill="none"></path></g></g></g></g><g opacity="0.2"><g><g><g><path stroke="rgb(255, 112, 67)" stroke-width="2px" d="M27.49090909090909,-45.94329118728638L28,5.184257711683009L28.50909090909091,22.871596813201904L29.01818181818182,2.68290179116385L29.527272727272727,-65.45554671968732L30.036363636363635,32.19933816364834L30.545454545454543,10.761586938585545L31.054545454545455,38.23106254850116L31.563636363636366,-61.513524736676885L32.07272727272727,-55.38655621664867L32.58181818181818,38.11823674610684L33.09090909090909,-0.23386648723058467L33.6,74.98123339244299L34.10909090909091,90.98585537501745L34.61818181818182,45.544884545462466L35.127272727272725,75.75916154044015L35.63636363636363,83.1812926701137L36.14545454545455,24.266793046678828L36.654545454545456,28.889953068324495L37.163636363636364,23.30537898199899L37.67272727272727,19.108089378901887L38.18181818181818,33.58631951468332L38.69090909090909,-47.06718410764422L39.2,61.171045984540676L39.70909090909091,66.23477833611625L40.21818181818182,19.04282501765659L40.72727272727273,69.03229440961566L41.236363636363635,59.40051146915982L41.74545454545454,43.52778230394635L42.25454545454546,96.57467331205096L42.763636363636365,102.70915951047625L43.27272727272727,31.58028159822736L43.78181818181818,-51.91038778850012L44.29090909090909,64.32013477597918L44.800000000000004,36.00013085774014L45.309090909090905,-29.181111540113164L45.81818181818182,56.17812531335013L46.32727272727273,16.06458153043475L46.836363636363636,91.67484453746252L47.345454545454544,54.85007286071777L47.85454545454545,62.58997746876309L48.36363636363637,76.70587369373867L48.872727272727275,-27.091833523341606L49.38181818181818,62.36584152494159L49.89090909090909,45.180337769644595L50.4,69.17497873306274L50.909090909090914,84.62677853448051L51.418181818181814,34.27782467433386L51.92727272727273,70.44389009475708L52.43636363636364,31.95655958993094L52.945454545454545,74.67637334551131L53.45454545454545,64.94104044778007L53.96363636363636,41.439777442387175L54.472727272727276,102.75032486234393L54.98181818181818,60.53013358797345L55.49090909090909,91.25239951269967L56,92.01923302241735L56.50909090909091,17.98601525170462L57.01818181818182,92.73159367697579L57.527272727272724,48.08201006480627L58.03636363636364,114.48866435459682L58.54545454545454,86.51250328336444L59.054545454545455,64.70502172197614L59.56363636363637,72.67758028847831L60.07272727272727,61.90204926899502L60.581818181818186,58.963061400822234L61.090909090909086,95.87070941925049L61.6,37.76769467762539L62.10909090909091,91.4449793951852L62.61818181818182,66.36000224522182L63.12727272727273,77.52733162471228L63.63636363636363,103.45434938158307L64.14545454545454,96.47363935198102L64.65454545454546,97.66843489238195L65.16363636363636,62.4626316343035L65.67272727272727,68.93832342965263L66.18181818181819,96.49955715451922L66.69090909090909,76.65282555988857L67.2,102.12472064154488L67.7090909090909,71.23949084963118L68.21818181818182,90.0316255433219L68.72727272727273,113.22733129773822L69.23636363636363,100.27155229023525L69.74545454545455,24.046961580004023L70.25454545454545,35.14078140258789L70.76363636363637,91.8733354977199L71.27272727272727,48.78324576786587L71.78181818181818,107.41349833352227L72.2909090909091,79.88670042582922L72.8,85.78556197030204L73.30909090909091,67.32963119234358L73.81818181818181,121.62539652415686L74.32727272727273,116.33373907634191L74.83636363636364,133.14161590167456L75.34545454545454,146.77436488015312L75.85454545454546,88.19070373262679L76.36363636363636,47.275193418775295L76.87272727272727,85.96995728356498L77.38181818181818,100.37725448608398L77.89090909090909,107.28924444743566L78.4,105.52122592926025L78.9090909090909,67.95802422932216L79.41818181818182,68.00179651805334L79.92727272727272,65.39725439889091L80.43636363636364,106.31970643997192L80.94545454545454,43.06168624332974L81.45454545454545,68.38371276855469L81.96363636363637,66.77080699375698L82.47272727272727,103.86812482561383L82.98181818181818,52.25444282804217L83.49090909090908,30.41140386036465L84,117.13988883154732L84.50909090909092,111.79869958332607L85.01818181818182,43.287944112505244L85.52727272727273,104.47090319224768L86.03636363636363,86.97477987834387L86.54545454545455,103.91044207981655L87.05454545454546,125.80355848584857L87.56363636363636,144.72055333001273L88.07272727272728,125.30730077198574L88.58181818181818,117.09084204265051L89.0909090909091,102.96230520520892L89.60000000000001,54.850497245788574L90.10909090909091,93.06312935692925L90.61818181818181,91.09716551644463L91.12727272727273,91.19759321212769L91.63636363636364,84.21075991221838L92.14545454545456,99.30152927126203L92.65454545454546,139.64281627110074L93.16363636363636,101.8658457483564L93.67272727272727,93.18811076028008L94.18181818181819,98.90594175883703L94.69090909090909,141.1423657621656L95.2,78.23563030787878L95.7090909090909,86.63078546524048L96.21818181818182,125.32212393624444L96.72727272727273,74.9188791002546L97.23636363636363,56.90700667245047L97.74545454545455,131.6384288242885L98.25454545454545,83.20111751556396L98.76363636363637,103.37077583585467L99.27272727272728,44.89145278930664L99.78181818181818,27.087225914001465L100.29090909090908,123.03174802235195L100.8,126.27265555518017L101.30909090909091,87.91788475854057L101.81818181818183,90.32251119613647L102.32727272727273,84.9745317867824L102.83636363636363,99.22480651310512L103.34545454545454,87.56406886237008L103.85454545454546,114.16510105133057L104.36363636363637,68.96821226392474L104.87272727272727,110.23565905434747L105.38181818181818,122.27794919695172L105.89090909090909,120.49086366380963L106.4,25.631039483206607L106.9090909090909,84.74133219037738L107.41818181818181,70.27947119304113L107.92727272727272,131.6686965738024L108.43636363636364,100.98506484712873L108.94545454545455,89.41532748086114L109.45454545454545,69.63749783379691L109.96363636363635,125.39799792425976L110.47272727272727,98.81909438541958L110.98181818181818,124.49772562299457L111.4909090909091,105.16462121691022L112,113.86212042399816L112.5090909090909,154.19335859162467L113.01818181818182,123.69578940527782L113.52727272727273,76.82691437857491L114.03636363636365,83.42055491038732L114.54545454545455,60.711891651153564L115.05454545454545,117.92321273258754L115.56363636363636,93.0089293207441L116.07272727272728,63.289849076952265L116.58181818181819,95.60725722994123L117.09090909090908,123.77857480730329L117.6,112.82083102634975L118.10909090909091,147.15709958757674L118.61818181818182,113.18468059812274L119.12727272727274,101.72352518354144L119.63636363636363,116.58970390047345L120.14545454545454,100.05905662264142L120.65454545454546,67.55079644066947L121.16363636363637,119.85722643988473L121.67272727272729,101.03626387459893L122.18181818181817,63.001145975930356L122.69090909090909,64.96756451470512L123.2,117.93494394847326L123.70909090909092,118.4566344533648L124.21818181818182,118.48955460957119L124.72727272727272,125.63813924789429L125.23636363636363,120.98939486912319L125.74545454545455,131.79558770997184L126.25454545454546,118.8797766821725L126.76363636363635,125.56359904153008L127.27272727272727,126.40045608792987L127.78181818181818,103.13242299216134L128.29090909090908,132.95779653957914L128.8,122.14257035936627L129.3090909090909,116.72841719218664L129.8181818181818,103.26052665710449L130.3272727272727,119.59159169878278L130.83636363636364,99.55540248325893L131.34545454545454,115.37426505770001L131.85454545454544,98.55330807822091L132.36363636363637,110.86508274078369L132.87272727272727,133.75679237501961L133.38181818181818,88.6211211340768L133.8909090909091,121.16502966199603L134.4,108.12995127269201L134.9090909090909,138.43437978199552L135.4181818181818,109.16399581091744L135.92727272727274,96.21749264853341L136.43636363636364,50.22918633052282L136.94545454545454,70.71646656308856L137.45454545454547,81.19598899568831L137.96363636363637,122.71036727087841L138.47272727272727,152.28017006601607L138.98181818181817,110.90591464723859L139.4909090909091,122.5416742052351L140,135.14947261129106L140.5090909090909,110.7703539303371L141.01818181818183,90.87045294897896L141.52727272727273,143.66597158568246L142.03636363636366,101.24979019165039L142.54545454545453,130.7709402697427L143.05454545454543,55.16251121248517L143.56363636363636,119.00888068335396L144.07272727272726,114.14739813123431L144.5818181818182,70.6380159514291L145.0909090909091,132.17468483107433L145.6,91.14706107548305L146.10909090909092,126.32655245917186L146.61818181818182,83.4477458681379L147.12727272727275,135.39472171238492L147.63636363636363,103.71322427477155L148.14545454545453,112.6048493385315L148.65454545454546,141.20723605155945L149.16363636363636,141.41369938850403L149.6727272727273,114.53643798828125L150.1818181818182,145.4127253804888L150.6909090909091,94.03594119208199L151.20000000000002,144.95122177260262L151.70909090909092,122.6791446549552L152.2181818181818,131.80769784109935L152.72727272727272,136.65875264576505L153.23636363636362,127.49829479626247L153.74545454545455,107.32113395418439L154.25454545454545,82.40633521761214L154.76363636363635,89.50350863592965L155.27272727272728,136.79914832115173L155.78181818181818,125.99234921591625L156.2909090909091,108.09260538646154L156.8,117.14143480573382L157.30909090909088,91.28613812582833L157.8181818181818,121.25299862452917L158.3272727272727,124.34582608086724L158.83636363636364,114.07003879547119L159.34545454545454,153.64711437906539L159.85454545454544,102.26064511707851L160.36363636363637,113.50709199905396L160.87272727272727,90.98127807889666L161.3818181818182,109.63466916765485L161.89090909090908,103.38999441691809L162.39999999999998,87.52044813973563L162.9090909090909,97.17235905783517L163.4181818181818,130.8795373780387L163.92727272727274,83.01544904708862L164.43636363636364,117.82502821513586L164.94545454545454,79.61191109248571L165.45454545454547,96.42089435032436L165.96363636363637,42.914879322052L166.4727272727273,132.20046622412548L166.98181818181817,145.4451605251857L167.49090909090907,115.27326141084943L168,87.65127999441964L168.5090909090909,146.24367134911674L169.01818181818183,120.34035852977209L169.52727272727273,103.26067822320123L170.03636363636363,99.56531490598407L170.54545454545456,118.51247140339443L171.05454545454546,116.82247911180768L171.56363636363636,106.25271422522408L172.07272727272726,117.7797099522182L172.58181818181816,79.8854878970555L173.0909090909091,109.37837089811053L173.6,85.61926364898682L174.10909090909092,142.27585281644548L174.61818181818182,139.2225992679596L175.12727272727273,134.832729782377L175.63636363636365,89.2757957322257L176.14545454545456,109.05420133045742L176.65454545454543,124.75714615413122L177.16363636363636,123.05484669549126L177.67272727272726,121.92880153656006L178.1818181818182,142.5973093509674L178.6909090909091,123.64549977438793L179.20000000000002,113.05848666599819L179.70909090909092,117.78168031147548L180.21818181818182,99.71066679273333L180.72727272727275,98.25675385338921L181.23636363636362,94.3152471951076L181.74545454545452,124.39420597893853L182.25454545454545,136.79056968007768L182.76363636363635,145.98900999341691L183.27272727272728,87.75764908109393L183.78181818181818,160.42886359351021L184.2909090909091,114.27704777036395L184.8,130.9668849195753L185.3090909090909,83.18132298333305L185.81818181818184,122.00067417962212L186.3272727272727,144.44065621920996L186.83636363636361,140.94575422150749L187.34545454545454,106.77570819854736L187.85454545454544,91.15715537752423L188.36363636363637,128.15278751509533L188.87272727272727,157.46050221579415L189.38181818181818,142.45539801461356L189.8909090909091,102.54343714032855L190.4,103.24373313358852L190.9090909090909,104.4478348323277L191.4181818181818,141.3311413356236L191.9272727272727,43.72421196528845L192.43636363636364,129.93088517870223L192.94545454545454,129.09208808626448L193.45454545454547,122.2885891369411L193.96363636363637,137.15816293443953L194.47272727272727,112.05593756267004L194.9818181818182,94.62244135992867L195.4909090909091,121.56049592154366L196,105.94548974718366L196.5090909090909,112.7823635510036L197.0181818181818,135.15409537724088L197.52727272727273,116.746483870915L198.03636363636363,135.07643290928434L198.54545454545456,126.4300721032279L199.05454545454546,125.81028802054271L199.56363636363636,148.87923904827665L200.0727272727273,143.11437708990914L200.58181818181816,144.70486623900277L201.0909090909091,96.96298565183368L201.6,123.64443881171093L202.1090909090909,133.7659924370902L202.61818181818182,133.9506150994982L203.12727272727273,130.91435211045402L203.63636363636365,100.54767540522985L204.14545454545456,136.94728902408056L204.65454545454546,150.7443962778364L205.16363636363639,122.16754845210485L205.67272727272726,98.67340905325753L206.1818181818182,143.305926322937L206.6909090909091,114.99653203146798L207.2,125.65569060189385L207.70909090909092,111.36209828513009L208.21818181818182,134.15327412741524L208.72727272727275,129.1158081804003L209.23636363636365,82.57081474576678L209.74545454545455,63.93715756280081L210.25454545454545,105.38211856569562L210.76363636363635,138.35927878107344L211.27272727272725,136.59485237939018L211.78181818181818,167.20526252474104L212.29090909090908,132.44016800607955L212.8,128.2500171661377L213.3090909090909,167.162914957319L213.8181818181818,119.51250450951714L214.32727272727274,170.72576403617862L214.83636363636361,130.9593369279589L215.34545454545454,149.10643662725175L215.85454545454544,145.7289983545031L216.36363636363635,153.50881031581335L216.87272727272727,111.66347231183734L217.38181818181818,118.26369081224713L217.8909090909091,143.21585059165955L218.4,131.93598338535855L218.9090909090909,140.47688450132097L219.41818181818184,157.08478501864843L219.9272727272727,126.62938152040753L220.43636363636364,141.16569178445L220.94545454545454,125.32379116330829L221.45454545454544,128.63820825304305L221.96363636363637,133.04165806089128L222.47272727272727,117.04570565904889L222.9818181818182,134.4071170261928L223.4909090909091,138.59247837747847L224,127.0829279082162L224.5090909090909,133.49652307374137L225.0181818181818,149.71764206886292L225.52727272727273,143.71648856571744L226.03636363636363,143.5431727341243L226.54545454545453,153.29007012503487L227.05454545454546,137.1758052280971L227.56363636363636,135.08082832608903L228.0727272727273,130.9017418112074L228.5818181818182,121.8946385383606L229.0909090909091,137.43133051054818L229.6,107.17090163912091L230.1090909090909,121.51857273919244L230.61818181818182,127.53097244671413L231.12727272727273,140.01662373542786L231.63636363636363,132.06373844827925L232.14545454545456,122.37007107053485L232.65454545454546,141.64197308676583L233.16363636363639,133.09246301651L233.6727272727273,124.3534346989223L234.18181818181816,124.40190553665161L234.6909090909091,138.89091202190946L235.2,126.32952315466747L235.7090909090909,132.14934297970365L236.21818181818182,143.0708624635424L236.72727272727272,140.89214529309953L237.23636363636365,145.38764119148254L237.74545454545455,134.98082501547677L238.25454545454548,109.53412021909442L238.76363636363638,120.0472903251648L239.27272727272725,121.88715117318291L239.78181818181818,125.67751611982074L240.29090909090908,129.62316053254264L240.79999999999998,154.61048364639282L241.3090909090909,109.29913214274816L241.8181818181818,145.11257903916496L242.32727272727274,92.190078326634L242.83636363636364,169.97057080268863L243.34545454545457,133.09281161853247L243.85454545454544,144.4533271448953L244.36363636363635,130.869928087507L244.87272727272727,99.88117865153723L245.38181818181818,134.9365222454071L245.89090909090908,110.12037788118634L246.4,133.21965728487288L246.9090909090909,139.57123160362244L247.41818181818184,158.236323595047L247.92727272727274,147.27932248796736L248.43636363636364,151.82873044695174L248.94545454545454,148.77759882381986L249.45454545454544,151.43264276640755L249.96363636363637,161.7795751776014L250.47272727272727,160.14026658875602L250.98181818181817,114.48669399533954L251.4909090909091,148.98622955594743L252,158.0994745663234L252.50909090909093,151.6658878326416L253.01818181818183,146.46285108157568L253.5272727272727,129.44384268351965L254.03636363636363,141.0893782547542L254.54545454545453,141.04013442993164L255.05454545454546,130.9616255760193L255.56363636363636,158.66989357130868L256.07272727272726,123.19753101893835L256.58181818181816,132.34342336654663L257.0909090909091,123.26231036867414L257.6,125.97525256020684L258.1090909090909,113.99940899440222L258.6181818181818,144.22576580728804L259.1272727272727,149.39000163759505" style="fill: none;" fill="none"></path></g></g></g></g></g></g><g transform="translate(50, 178)" clip-path="url(#clip_1)"><clipPath id="clip_1"><rect width="280" height="21"></rect></clipPath><g><g><line x1="0" y1="0" x2="0" y2="5" style="visibility: inherit;" fill="rgb(0, 0, 0)" stroke="rgb(204, 204, 204)" stroke-width="1px"></line><line x1="25.454545454545457" y1="0" x2="25.454545454545457" y2="5" style="visibility: inherit;" fill="rgb(0, 0, 0)" stroke="rgb(204, 204, 204)" stroke-width="1px"></line><line x1="50.909090909090914" y1="0" x2="50.909090909090914" y2="5" style="visibility: inherit;" fill="rgb(0, 0, 0)" stroke="rgb(204, 204, 204)" stroke-width="1px"></line><line x1="76.36363636363636" y1="0" x2="76.36363636363636" y2="5" style="visibility: inherit;" fill="rgb(0, 0, 0)" stroke="rgb(204, 204, 204)" stroke-width="1px"></line><line x1="101.81818181818183" y1="0" x2="101.81818181818183" y2="5" style="visibility: inherit;" fill="rgb(0, 0, 0)" stroke="rgb(204, 204, 204)" stroke-width="1px"></line><line x1="127.27272727272727" y1="0" x2="127.27272727272727" y2="5" style="visibility: inherit;" fill="rgb(0, 0, 0)" stroke="rgb(204, 204, 204)" stroke-width="1px"></line><line x1="152.72727272727272" y1="0" x2="152.72727272727272" y2="5" style="visibility: inherit;" fill="rgb(0, 0, 0)" stroke="rgb(204, 204, 204)" stroke-width="1px"></line><line x1="178.1818181818182" y1="0" x2="178.1818181818182" y2="5" style="visibility: inherit;" fill="rgb(0, 0, 0)" stroke="rgb(204, 204, 204)" stroke-width="1px"></line><line x1="203.63636363636365" y1="0" x2="203.63636363636365" y2="5" style="visibility: inherit;" fill="rgb(0, 0, 0)" stroke="rgb(204, 204, 204)" stroke-width="1px"></line><line x1="229.0909090909091" y1="0" x2="229.0909090909091" y2="5" style="visibility: inherit;" fill="rgb(0, 0, 0)" stroke="rgb(204, 204, 204)" stroke-width="1px"></line><line x1="254.54545454545453" y1="0" x2="254.54545454545453" y2="5" style="visibility: inherit;" fill="rgb(0, 0, 0)" stroke="rgb(204, 204, 204)" stroke-width="1px"></line><line x1="280" y1="0" x2="280" y2="5" style="visibility: inherit;" fill="rgb(0, 0, 0)" stroke="rgb(204, 204, 204)" stroke-width="1px"></line></g><g transform="translate(0, 8)"><text x="0" y="0" dx="0em" dy="0.95em" style="text-anchor: middle; visibility: hidden; font-family: Roboto, sans-serif; font-size: 12px; font-weight: 200;" fill="rgb(50, 49, 63)" stroke="none" stroke-width="1px">-1k</text><text x="25.454545454545457" y="0" dx="0em" dy="0.95em" style="text-anchor: middle; visibility: inherit; font-family: Roboto, sans-serif; font-size: 12px; font-weight: 200;" fill="rgb(50, 49, 63)" stroke="none" stroke-width="1px">0</text><text x="50.909090909090914" y="0" dx="0em" dy="0.95em" style="text-anchor: middle; visibility: inherit; font-family: Roboto, sans-serif; font-size: 12px; font-weight: 200;" fill="rgb(50, 49, 63)" stroke="none" stroke-width="1px">1k</text><text x="76.36363636363636" y="0" dx="0em" dy="0.95em" style="text-anchor: middle; visibility: inherit; font-family: Roboto, sans-serif; font-size: 12px; font-weight: 200;" fill="rgb(50, 49, 63)" stroke="none" stroke-width="1px">2k</text><text x="101.81818181818183" y="0" dx="0em" dy="0.95em" style="text-anchor: middle; visibility: inherit; font-family: Roboto, sans-serif; font-size: 12px; font-weight: 200;" fill="rgb(50, 49, 63)" stroke="none" stroke-width="1px">3k</text><text x="127.27272727272727" y="0" dx="0em" dy="0.95em" style="text-anchor: middle; visibility: inherit; font-family: Roboto, sans-serif; font-size: 12px; font-weight: 200;" fill="rgb(50, 49, 63)" stroke="none" stroke-width="1px">4k</text><text x="152.72727272727272" y="0" dx="0em" dy="0.95em" style="text-anchor: middle; visibility: inherit; font-family: Roboto, sans-serif; font-size: 12px; font-weight: 200;" fill="rgb(50, 49, 63)" stroke="none" stroke-width="1px">5k</text><text x="178.1818181818182" y="0" dx="0em" dy="0.95em" style="text-anchor: middle; visibility: inherit; font-family: Roboto, sans-serif; font-size: 12px; font-weight: 200;" fill="rgb(50, 49, 63)" stroke="none" stroke-width="1px">6k</text><text x="203.63636363636365" y="0" dx="0em" dy="0.95em" style="text-anchor: middle; visibility: inherit; font-family: Roboto, sans-serif; font-size: 12px; font-weight: 200;" fill="rgb(50, 49, 63)" stroke="none" stroke-width="1px">7k</text><text x="229.0909090909091" y="0" dx="0em" dy="0.95em" style="text-anchor: middle; visibility: inherit; font-family: Roboto, sans-serif; font-size: 12px; font-weight: 200;" fill="rgb(50, 49, 63)" stroke="none" stroke-width="1px">8k</text><text x="254.54545454545453" y="0" dx="0em" dy="0.95em" style="text-anchor: middle; visibility: inherit; font-family: Roboto, sans-serif; font-size: 12px; font-weight: 200;" fill="rgb(50, 49, 63)" stroke="none" stroke-width="1px">9k</text><text x="280" y="0" dx="0em" dy="0.95em" style="text-anchor: middle; visibility: hidden; font-family: Roboto, sans-serif; font-size: 12px; font-weight: 200;" fill="rgb(50, 49, 63)" stroke="none" stroke-width="1px">10k</text></g><line x1="0" y1="0" x2="280" y2="0" fill="rgb(0, 0, 0)" stroke="rgb(204, 204, 204)" stroke-width="1px"></line></g></g></g></g></svg>